# xmcd CD database file
#
# Track frame offsets:
#	150
#	12987
#	27822
#	40611
#	57295
#	72141
#	82666
#	108956
#	132410
#	150037
#	169276
#	183484
#	202828
#	213763
#	225198
#	239195
#	255568
#	267887
#	292561
#	314493
#
# Disc length: 4331 seconds
#
# Revision: 2
# Processed by: cddbd v1.5.2PL0 Copyright (c) Steve Scherf et al.
# Submitted via: CDex 1.70beta2
#
DISCID=f710e914
DTITLE=Louis Armstrong - Satchmo - The Louis Armstrong Collection
DYEAR=2011
DGENRE=Jazz
TTITLE0=Swing That Music
TTITLE1=Dippermouth Blues - Sugar Foot Stomp
TTITLE2=I've Got The World On A String
TTITLE3=Moonlight In Vermont
TTITLE4=East Of The Sun (West Of The Moon)
TTITLE5=It's Been A Long, Long Time
TTITLE6=Basin Street Blues
TTITLE7=Blues In The Night
TTITLE8=Mack The Knife [live at the Hollywood Bowl (1956)]
TTITLE9=Stormy Weather
TTITLE10=I'm In The Mood For Love
TTITLE11=Rockin' Chair [live (1955 Crescendo Club)]
TTITLE12=Hello, Dolly!
TTITLE13=You're The Top
TTITLE14=Dream A Little Dream Of Me
TTITLE15=Don't Get Around Much Anymore
TTITLE16=Your Cheatin' Heart
TTITLE17=Bess You Is My Woman Now
TTITLE18=Nobody Knows The Troubles I've Seen
TTITLE19=What A Wonderful World
EXTD=YEAR: 2011
EXTT0=
EXTT1=
EXTT2=
EXTT3=
EXTT4=
EXTT5=
EXTT6=
EXTT7=
EXTT8=
EXTT9=
EXTT10=
EXTT11=
EXTT12=
EXTT13=
EXTT14=
EXTT15=
EXTT16=
EXTT17=
EXTT18=
EXTT19=
PLAYORDER=
